<?xml version="1.0" encoding="UTF-8"?>
<svg width="11px" height="11px" viewBox="0 0 11 11" version="1.1" xmlns="http://www.w3.org/2000/svg" xmlns:xlink="http://www.w3.org/1999/xlink">
    <!-- Generator: Sketch 42 (36781) - http://www.bohemiancoding.com/sketch -->
    <title>info-icon copy</title>
    <desc>Created with Sketch.</desc>
    <defs></defs>
    <g id="Publish-Area-–-Escargot" stroke="none" stroke-width="1" fill-rule="evenodd">
        <g id="publish-inactive-1" transform="translate(-800.000000, -138.000000)">
            <path d="M805.5,138 C802.475,138 800,140.475 800,143.5 C800,146.525 802.475,149 805.5,149 C808.525,149 811,146.525 811,143.5 C811,140.475 808.525,138 805.5,138 Z M805.5,146.9375 C805.0875,146.9375 804.8125,146.6625 804.8125,146.25 C804.8125,145.8375 805.0875,145.5625 805.5,145.5625 C805.9125,145.5625 806.1875,145.8375 806.1875,146.25 C806.1875,146.6625 805.9125,146.9375 805.5,146.9375 Z M806.53125,143.775 C806.1875,143.98125 806.1875,144.05 806.1875,144.1875 L806.1875,144.875 L804.8125,144.875 L804.8125,144.1875 C804.8125,143.29375 805.3625,142.88125 805.775,142.60625 C806.11875,142.4 806.1875,142.33125 806.1875,142.125 C806.1875,141.7125 805.9125,141.4375 805.5,141.4375 C805.225,141.4375 805.01875,141.575 804.88125,141.78125 L804.5375,142.4 L803.36875,141.7125 L803.7125,141.09375 C804.05625,140.475 804.74375,140.0625 805.5,140.0625 C806.66875,140.0625 807.5625,140.95625 807.5625,142.125 C807.5625,143.0875 806.94375,143.5 806.53125,143.775 Z" id="info-icon-copy"></path>
        </g>
    </g>
</svg>