<?xml version="1.0" encoding="UTF-8"?>
<svg width="18px" height="17px" viewBox="0 0 18 17" version="1.1" xmlns="http://www.w3.org/2000/svg" xmlns:xlink="http://www.w3.org/1999/xlink">
    <!-- Generator: Sketch 42 (36781) - http://www.bohemiancoding.com/sketch -->
    <title>audio-icon</title>
    <desc>Created with Sketch.</desc>
    <defs></defs>
    <g id="Symbols" stroke="none" stroke-width="1">
        <g id="asset-picker" transform="translate(-190.000000, -15.000000)">
            <g id="audio-icon" transform="translate(190.000000, 15.000000)">
                <path d="M10.83525,0.07875 C10.58175,-0.0465 10.27725,-0.02025 10.05,0.15 L4.25025,4.5 L0.75,4.5 C0.33525,4.5 0,4.83525 0,5.25 L0,11.25 C0,11.66475 0.33525,12 0.75,12 L4.25025,12 L10.05,16.35 C10.182,16.44975 10.341,16.5 10.5,16.5 C10.614,16.5 10.7295,16.47375 10.83525,16.42125 C11.0895,16.29375 11.25,16.03425 11.25,15.75 L11.25,0.75 C11.25,0.46575 11.0895,0.20625 10.83525,0.07875 Z" id="Shape"></path>
                <path d="M13.68225,5.0685 L13.152,4.53825 L12.0915,5.59875 L12.62175,6.129 C13.79175,7.299 13.79175,9.20175 12.62175,10.371 L12.0915,10.90125 L13.152,11.96175 L13.68225,11.4315 C15.4365,9.67725 15.4365,6.82275 13.68225,5.0685 Z" id="Shape"></path>
                <path d="M15.273,2.4165 L14.2125,3.477 L14.74275,4.00725 C17.082,6.3465 17.082,10.1535 14.74275,12.49275 L14.2125,13.023 L15.273,14.0835 L15.80325,13.55325 C18.7275,10.629 18.7275,5.871 15.80325,2.946 L15.273,2.4165 Z" id="Shape"></path>
            </g>
        </g>
    </g>
</svg>