<?xml version="1.0" encoding="UTF-8"?>
<svg width="15px" height="18px" viewBox="0 0 15 18" version="1.1" xmlns="http://www.w3.org/2000/svg" xmlns:xlink="http://www.w3.org/1999/xlink">
    <!-- Generator: Sketch 42 (36781) - http://www.bohemiancoding.com/sketch -->
    <title>Shape</title>
    <desc>Created with Sketch.</desc>
    <defs></defs>
    <g id="Symbols" stroke="none" stroke-width="1">
        <g id="asset-picker" transform="translate(-22.000000, -172.000000)">
            <path d="M36.8877805,173.870324 C36.7381546,173.645885 36.5137157,173.496259 36.2144638,173.496259 L23.4962594,173.496259 L23.4962594,172.74813 C23.4962594,172.299252 23.1970075,172 22.7481297,172 C22.2992519,172 22,172.299252 22,172.74813 L22,189.206983 C22,189.65586 22.2992519,189.955112 22.7481297,189.955112 C23.1970075,189.955112 23.4962594,189.65586 23.4962594,189.206983 L23.4962594,183.970075 L36.2144638,183.970075 C36.5137157,183.970075 36.7381546,183.820449 36.8877805,183.59601 C37.0374065,183.371571 37.0374065,183.072319 36.8877805,182.84788 L34.1197007,178.733167 L36.8129676,174.693267 C36.9625935,174.394015 37.0374065,174.169576 36.8877805,173.870324 Z" id="Shape"></path>
        </g>
    </g>
</svg>