<?xml version="1.0" encoding="UTF-8"?>
<svg width="15px" height="14px" viewBox="0 0 15 14" version="1.1" xmlns="http://www.w3.org/2000/svg" xmlns:xlink="http://www.w3.org/1999/xlink">
    <!-- Generator: Sketch 42 (36781) - http://www.bohemiancoding.com/sketch -->
    <title>bookedition-icon</title>
    <desc>Created with Sketch.</desc>
    <defs></defs>
    <g id="Symbols" stroke="none" stroke-width="1">
        <g id="asset-picker" transform="translate(-360.000000, -86.000000)">
            <g id="bookedition-icon" transform="translate(360.000000, 86.000000)">
                <path d="M14.75,0.125 C14.625,0 14.375,0 14.1875,0 L7.5,1.875 L0.8125,0 C0.625,0 0.375,0 0.25,0.125 C0.0625,0.25 0,0.4375 0,0.625 L0,11.25 C0,11.5625 0.1875,11.75 0.4375,11.875 L7.3125,13.75 L7.5,13.75 L7.6875,13.75 L14.5625,11.875 C14.8125,11.8125 15,11.5625 15,11.25 L15,0.625 C15,0.4375 14.9375,0.25 14.75,0.125 Z M6.25,10.1875 C6.125,10.4375 5.875,10.625 5.625,10.625 L5.4375,10.625 L2.9375,9.9375 C2.625,9.875 2.4375,9.5 2.5,9.1875 C2.5625,8.875 2.9375,8.6875 3.25,8.75 L5.75,9.4375 C6.125,9.5 6.3125,9.875 6.25,10.1875 Z M6.25,7.375 C6.1875,7.625 5.9375,7.8125 5.625,7.8125 L5.4375,7.8125 L2.9375,7.125 C2.625,7.0625 2.4375,6.6875 2.5,6.375 C2.5625,6.0625 2.9375,5.875 3.25,5.9375 L5.75,6.625 C6.125,6.6875 6.3125,7.0625 6.25,7.375 Z M6.25,4.75 C6.125,5 5.875,5.1875 5.625,5.1875 L5.4375,5.1875 L2.9375,4.5 C2.625,4.4375 2.4375,4.0625 2.5,3.75 C2.5625,3.4375 2.9375,3.25 3.25,3.3125 L5.75,4 C6.125,4.0625 6.3125,4.4375 6.25,4.75 Z M12.0625,9.9375 L9.5625,10.625 L9.375,10.625 C9.125,10.625 8.875,10.4375 8.75,10.1875 C8.6875,9.875 8.875,9.5 9.1875,9.4375 L11.6875,8.75 C12,8.6875 12.375,8.875 12.4375,9.1875 C12.5625,9.5 12.375,9.875 12.0625,9.9375 Z M12.0625,7.125 L9.5625,7.8125 L9.375,7.8125 C9.125,7.8125 8.875,7.625 8.75,7.375 C8.6875,7.0625 8.875,6.6875 9.1875,6.625 L11.6875,5.9375 C12,5.875 12.375,6.0625 12.4375,6.375 C12.5625,6.6875 12.375,7.0625 12.0625,7.125 Z M12.0625,4.5 L9.5625,5.1875 L9.375,5.1875 C9.125,5.1875 8.875,5 8.75,4.75 C8.6875,4.4375 8.875,4.0625 9.1875,4 L11.6875,3.3125 C12.0625,3.1875 12.375,3.375 12.5,3.75 C12.5625,4.0625 12.375,4.4375 12.0625,4.5 Z" id="Shape"></path>
            </g>
        </g>
    </g>
</svg>