<?xml version="1.0" encoding="UTF-8"?>
<svg width="18px" height="18px" viewBox="0 0 18 18" version="1.1" xmlns="http://www.w3.org/2000/svg" xmlns:xlink="http://www.w3.org/1999/xlink">
    <!-- Generator: Sketch 42 (36781) - http://www.bohemiancoding.com/sketch -->
    <title>container-icon</title>
    <desc>Created with Sketch.</desc>
    <defs></defs>
    <g id="Symbols" stroke="none" stroke-width="1">
        <g id="asset-picker" transform="translate(-84.000000, -121.000000)">
            <g id="container-icon" transform="translate(84.000000, 121.000000)">
                <path d="M15,0.75 C15,0.336 14.664,0 14.25,0 L3.75,0 C3.336,0 3,0.336 3,0.75 L3,11.25 L15,11.25 L15,0.75 Z M12,8.25 L6,8.25 L6,6.75 L12,6.75 L12,8.25 Z M12,4.5 L6,4.5 L6,3 L12,3 L12,4.5 Z" id="Shape"></path>
                <path d="M16.5,4.5 L16.5,12.75 L11.25,12.75 L11.25,14.25 L6.75,14.25 L6.75,12.75 L1.5,12.75 L1.5,4.5 L0,4.5 L0,17.25 C0,17.664 0.336,18 0.75,18 L17.25,18 C17.664,18 18,17.664 18,17.25 L18,4.5 L16.5,4.5 Z" id="Shape"></path>
            </g>
        </g>
    </g>
</svg>