<?xml version="1.0" encoding="UTF-8"?>
<svg width="18px" height="18px" viewBox="0 0 18 18" version="1.1" xmlns="http://www.w3.org/2000/svg" xmlns:xlink="http://www.w3.org/1999/xlink">
    <!-- Generator: Sketch 42 (36781) - http://www.bohemiancoding.com/sketch -->
    <title>ecommerce-icon</title>
    <desc>Created with Sketch.</desc>
    <defs></defs>
    <g id="Symbols" stroke="none" stroke-width="1">
        <g id="asset-picker" transform="translate(-195.000000, -121.000000)">
            <g id="ecommerce-icon" transform="translate(195.000000, 121.000000)">
                <path d="M17.25,5.25 L14.685,5.25 L11.901,0.378 C11.69625,0.01875 11.238,-0.10725 10.878,0.099 C10.51875,0.3045 10.3935,0.76275 10.599,1.122 L12.95775,5.25 L5.04225,5.25 L7.401,1.122 C7.6065,0.76275 7.48125,0.3045 7.122,0.099 C6.76275,-0.10725 6.3045,0.01875 6.099,0.378 L3.315,5.25 L0.75,5.25 C0.336,5.25 0,5.58525 0,6 L0,7.5 C0,7.91475 0.336,8.25 0.75,8.25 L17.25,8.25 C17.664,8.25 18,7.91475 18,7.5 L18,6 C18,5.58525 17.664,5.25 17.25,5.25 Z" id="Shape"></path>
                <path d="M16.5,9.75 L1.5,9.75 L1.5,17.25 C1.5,17.664 1.836,18 2.25,18 L15.75,18 C16.164,18 16.5,17.664 16.5,17.25 L16.5,9.75 Z M6.75,15.75 L5.25,15.75 L5.25,12 L6.75,12 L6.75,15.75 Z M9.75,15.75 L8.25,15.75 L8.25,12 L9.75,12 L9.75,15.75 Z M12.75,15.75 L11.25,15.75 L11.25,12 L12.75,12 L12.75,15.75 Z" id="Shape"></path>
            </g>
        </g>
    </g>
</svg>