<?xml version="1.0" encoding="UTF-8"?>
<svg width="18px" height="17px" viewBox="0 0 18 17" version="1.1" xmlns="http://www.w3.org/2000/svg" xmlns:xlink="http://www.w3.org/1999/xlink">
    <!-- Generator: Sketch 42 (36781) - http://www.bohemiancoding.com/sketch -->
    <title>image-icon</title>
    <desc>Created with Sketch.</desc>
    <defs></defs>
    <g id="Symbols" stroke="none" stroke-width="1">
        <g id="asset-picker" transform="translate(-22.000000, -15.000000)">
            <g id="image-icon" transform="translate(22.000000, 15.000000)">
                <ellipse id="Oval" cx="6.75" cy="5.25" rx="1.5" ry="1.5"></ellipse>
                <path d="M17.25,0 L0.75,0 C0.336,0 0,0.33525 0,0.75 L0,15.75 C0,16.16475 0.336,16.5 0.75,16.5 L17.25,16.5 C17.664,16.5 18,16.16475 18,15.75 L18,0.75 C18,0.33525 17.664,0 17.25,0 Z M16.5,1.5 L16.5,10.5 L12.75,6.75 L8.25,12 L4.5,9 L1.5,12 L1.5,1.5 L16.5,1.5 Z" id="Shape"></path>
            </g>
        </g>
    </g>
</svg>