<?xml version="1.0" encoding="UTF-8"?>
<svg width="18px" height="15px" viewBox="0 0 18 15" version="1.1" xmlns="http://www.w3.org/2000/svg" xmlns:xlink="http://www.w3.org/1999/xlink">
    <!-- Generator: Sketch 42 (36781) - http://www.bohemiancoding.com/sketch -->
    <title>infog-icon</title>
    <desc>Created with Sketch.</desc>
    <defs></defs>
    <g id="Symbols" stroke="none" stroke-width="1">
        <g id="asset-picker" transform="translate(-421.000000, -51.000000)">
            <g id="infog-icon" transform="translate(421.000000, 51.000000)">
                <path d="M10.6363636,0 L7.36363636,0 C6.87272727,0 6.54545455,0.327272727 6.54545455,0.818181818 L6.54545455,13.9090909 C6.54545455,14.4 6.87272727,14.7272727 7.36363636,14.7272727 L10.6363636,14.7272727 C11.1272727,14.7272727 11.4545455,14.4 11.4545455,13.9090909 L11.4545455,0.818181818 C11.4545455,0.327272727 11.1272727,0 10.6363636,0 Z" id="Shape"></path>
                <path d="M4.09090909,8.18181818 L0.818181818,8.18181818 C0.327272727,8.18181818 0,8.50909091 0,9 L0,13.9090909 C0,14.4 0.327272727,14.7272727 0.818181818,14.7272727 L4.09090909,14.7272727 C4.58181818,14.7272727 4.90909091,14.4 4.90909091,13.9090909 L4.90909091,9 C4.90909091,8.50909091 4.58181818,8.18181818 4.09090909,8.18181818 Z" id="Shape"></path>
                <path d="M17.1818182,4.09090909 L13.9090909,4.09090909 C13.4181818,4.09090909 13.0909091,4.41818182 13.0909091,4.90909091 L13.0909091,13.9090909 C13.0909091,14.4 13.4181818,14.7272727 13.9090909,14.7272727 L17.1818182,14.7272727 C17.6727273,14.7272727 18,14.4 18,13.9090909 L18,4.90909091 C18,4.41818182 17.6727273,4.09090909 17.1818182,4.09090909 Z" id="Shape"></path>
            </g>
        </g>
    </g>
</svg>