<?xml version="1.0" encoding="UTF-8"?>
<svg width="17px" height="15px" viewBox="0 0 17 15" version="1.1" xmlns="http://www.w3.org/2000/svg" xmlns:xlink="http://www.w3.org/1999/xlink">
    <!-- Generator: Sketch 42 (36781) - http://www.bohemiancoding.com/sketch -->
    <title>nprvideo-icon</title>
    <desc>Created with Sketch.</desc>
    <defs></defs>
    <g id="Symbols" stroke="none" stroke-width="1">
        <g id="asset-picker" transform="translate(-22.000000, -51.000000)">
            <g id="nprvideo-icon" transform="translate(22.000000, 51.000000)">
                <path d="M12.0416667,2.83333333 L10.625,2.83333333 L10.625,1.41666667 L4.95833333,1.41666667 L4.95833333,0 L11.3333333,0 C11.7243333,0 12.0416667,0.316625 12.0416667,0.708333333 L12.0416667,2.83333333 Z" id="Shape"></path>
                <path d="M16.68125,5.07520833 C16.4829167,4.94345833 16.2314583,4.9215 16.0125833,5.01570833 L12.0416667,6.71783333 L12.0416667,4.25 C12.0416667,3.85829167 11.7243333,3.54166667 11.3333333,3.54166667 L0.708333333,3.54166667 C0.317333333,3.54166667 0,3.85829167 0,4.25 L0,14.1666667 C0,14.558375 0.317333333,14.875 0.708333333,14.875 L11.3333333,14.875 C11.7243333,14.875 12.0416667,14.558375 12.0416667,14.1666667 L12.0416667,11.6988333 L16.0125833,13.4009583 C16.1018333,13.4399167 16.19675,13.4583333 16.2916667,13.4583333 C16.428375,13.4583333 16.564375,13.4186667 16.68125,13.3414583 C16.8802917,13.2097083 17,12.988 17,12.75 L17,5.66666667 C17,5.42866667 16.8802917,5.20695833 16.68125,5.07520833 Z M3.54166667,7.79166667 C3.15066667,7.79166667 2.83333333,7.47433333 2.83333333,7.08333333 C2.83333333,6.69233333 3.15066667,6.375 3.54166667,6.375 C3.93266667,6.375 4.25,6.69233333 4.25,7.08333333 C4.25,7.47433333 3.93266667,7.79166667 3.54166667,7.79166667 Z" id="Shape"></path>
            </g>
        </g>
    </g>
</svg>