<?xml version="1.0" encoding="UTF-8"?>
<svg width="16px" height="14px" viewBox="0 0 16 14" version="1.1" xmlns="http://www.w3.org/2000/svg" xmlns:xlink="http://www.w3.org/1999/xlink">
    <!-- Generator: Sketch 42 (36781) - http://www.bohemiancoding.com/sketch -->
    <title>pullquote-icon</title>
    <desc>Created with Sketch.</desc>
    <defs></defs>
    <g id="Symbols" stroke="none" stroke-width="1">
        <g id="asset-picker" transform="translate(-388.000000, -16.000000)">
            <g id="pullquote-icon" transform="translate(388.000000, 16.000000)">
                <path d="M6,14 L0.666666667,14 C0.2985,14 0,13.70182 0,13.3333333 L0,6.66666667 C0,3.30403333 1.26009333,1.07812667 3.74512,0.0504533333 C4.08528667,-0.08952 4.47493333,0.0716133333 4.61621333,0.411786667 C4.75684,0.75228 4.59505333,1.14192667 4.25488667,1.28288 C2.44922,2.0293 1.49576667,3.57552 1.35254,6 L6,6 C6.36816667,6 6.66666667,6.2985 6.66666667,6.66666667 L6.66666667,13.3333333 C6.66666667,13.70182 6.36816667,14 6,14 Z" id="Shape"></path>
                <path d="M15.3333333,14 L10,14 C9.63183333,14 9.33333333,13.70182 9.33333333,13.3333333 L9.33333333,6.66666667 C9.33333333,3.30403333 10.5934267,1.07812667 13.0784533,0.0504533333 C13.4176467,-0.08952 13.8082733,0.0716133333 13.9495467,0.41178 C14.0901733,0.752273333 13.9283867,1.14192 13.58822,1.28287333 C11.7825533,2.0293 10.8291,3.57552 10.6858733,6 L15.3333333,6 C15.7015,6 16,6.2985 16,6.66666667 L16,13.3333333 C16,13.70182 15.7015,14 15.3333333,14 Z" id="Shape"></path>
            </g>
        </g>
    </g>
</svg>