<?xml version="1.0" encoding="UTF-8"?>
<svg width="18px" height="18px" viewBox="0 0 18 18" version="1.1" xmlns="http://www.w3.org/2000/svg" xmlns:xlink="http://www.w3.org/1999/xlink">
    <!-- Generator: Sketch 42 (36781) - http://www.bohemiancoding.com/sketch -->
    <title>slideshow-icon</title>
    <desc>Created with Sketch.</desc>
    <defs></defs>
    <g id="Symbols" stroke="none" stroke-width="1">
        <g id="asset-picker" transform="translate(-274.000000, -15.000000)">
            <g id="slideshow-icon" transform="translate(274.000000, 15.000000)">
                <path d="M17.25,12 L0.75,12 C0.336,12 0,11.66475 0,11.25 L0,0.75 C0,0.33525 0.336,0 0.75,0 L17.25,0 C17.664,0 18,0.33525 18,0.75 L18,11.25 C18,11.66475 17.664,12 17.25,12 Z" id="Shape"></path>
                <ellipse id="Oval" cx="3" cy="15.75" rx="1.5" ry="1.5"></ellipse>
                <ellipse id="Oval" cx="15" cy="15.75" rx="1.5" ry="1.5"></ellipse>
                <path d="M9,18 C7.7595,18 6.75,16.9905 6.75,15.75 C6.75,14.5095 7.7595,13.5 9,13.5 C10.2405,13.5 11.25,14.5095 11.25,15.75 C11.25,16.9905 10.2405,18 9,18 Z" id="Shape"></path>
            </g>
        </g>
    </g>
</svg>