<?xml version="1.0" encoding="UTF-8"?>
<svg width="18px" height="15px" viewBox="0 0 18 15" version="1.1" xmlns="http://www.w3.org/2000/svg" xmlns:xlink="http://www.w3.org/1999/xlink">
    <!-- Generator: Sketch 42 (36781) - http://www.bohemiancoding.com/sketch -->
    <title>inset-text-icon</title>
    <desc>Created with Sketch.</desc>
    <defs></defs>
    <g id="Symbols" stroke="none" stroke-width="1">
        <g id="asset-picker" transform="translate(-438.000000, -86.000000)">
            <g id="inset-text-icon" transform="translate(438.000000, 86.000000)">
                <path d="M0.75,1.5 L17.25,1.5 C17.6641875,1.5 18,1.1645475 18,0.75 C18,0.3354525 17.6641875,0 17.25,0 L0.75,0 C0.3358125,0 0,0.3354525 0,0.75 C0,1.1645475 0.3358125,1.5 0.75,1.5 Z" id="Shape"></path>
                <path d="M17.25,4.5 L11.25,4.5 C10.8358125,4.5 10.5,4.8354525 10.5,5.25 C10.5,5.6645475 10.8358125,6 11.25,6 L17.25,6 C17.6641875,6 18,5.6645475 18,5.25 C18,4.8354525 17.6641875,4.5 17.25,4.5 Z" id="Shape"></path>
                <path d="M17.25,9 L11.25,9 C10.8358125,9 10.5,9.3354525 10.5,9.75 C10.5,10.1645475 10.8358125,10.5 11.25,10.5 L17.25,10.5 C17.6641875,10.5 18,10.1645475 18,9.75 C18,9.3354525 17.6641875,9 17.25,9 Z" id="Shape"></path>
                <path d="M17.25,13.5 L0.75,13.5 C0.3358125,13.5 0,13.8354525 0,14.25 C0,14.6645475 0.3358125,15 0.75,15 L17.25,15 C17.6641875,15 18,14.6645475 18,14.25 C18,13.8354525 17.6641875,13.5 17.25,13.5 Z" id="Shape"></path>
                <path d="M0.75,8.25 L5.25,8.25 L5.25,10.5 L9,7.5 L5.25,4.5 L5.25,6.75 L0.75,6.75 C0.3357675,6.75 0,7.0857675 0,7.5 C0,7.9141875 0.3357675,8.25 0.75,8.25 Z" id="Shape"></path>
            </g>
        </g>
    </g>
</svg>