<?xml version="1.0" encoding="UTF-8"?>
<svg width="18px" height="15px" viewBox="0 0 18 15" version="1.1" xmlns="http://www.w3.org/2000/svg" xmlns:xlink="http://www.w3.org/1999/xlink">
    <!-- Generator: Sketch 42 (36781) - http://www.bohemiancoding.com/sketch -->
    <title>twitter-icon</title>
    <desc>Created with Sketch.</desc>
    <defs></defs>
    <g id="Symbols" stroke="none" stroke-width="1">
        <g id="asset-picker" transform="translate(-275.000000, -86.000000)">
            <path d="M293,87.725 C292.325,88.025 291.65,88.25 290.9,88.325 C291.65,87.875 292.25,87.125 292.55,86.3 C291.8,86.75 291.05,87.05 290.225,87.2 C289.55,86.45 288.575,86 287.525,86 C285.5,86 283.85,87.65 283.85,89.675 C283.85,89.975 283.85,90.275 283.925,90.5 C280.775,90.35 278.075,88.85 276.275,86.6 C275.9,87.2 275.75,87.8 275.75,88.475 C275.75,89.75 276.425,90.875 277.4,91.55 C276.8,91.55 276.2,91.4 275.75,91.1 C275.75,91.1 275.75,91.1 275.75,91.175 C275.75,92.975 277.025,94.475 278.675,94.775 C278.375,94.85 278.075,94.925 277.7,94.925 C277.475,94.925 277.25,94.925 277.025,94.85 C277.475,96.35 278.825,97.4 280.475,97.4 C279.2,98.375 277.625,98.975 275.9,98.975 C275.6,98.975 275.3,98.975 275,98.9 C276.65,99.95 278.6,100.55 280.625,100.55 C287.45,100.55 291.125,94.925 291.125,90.05 L291.125,89.6 C291.875,89.075 292.475,88.4 293,87.725 Z" id="twitter-icon"></path>
        </g>
    </g>
</svg>