<?xml version="1.0" encoding="UTF-8"?>
<svg width="25px" height="13px" viewBox="0 0 25 13" version="1.1" xmlns="http://www.w3.org/2000/svg" xmlns:xlink="http://www.w3.org/1999/xlink">
    <!-- Generator: Sketch 42 (36781) - http://www.bohemiancoding.com/sketch -->
    <title>vuhaus-icon</title>
    <desc>Created with Sketch.</desc>
    <defs></defs>
    <g id="Symbols" stroke="none" stroke-width="1">
        <g id="asset-picker" transform="translate(-319.000000, -53.000000)">
            <g id="vuhaus-icon" transform="translate(319.000000, 53.000000)">
                <path d="M15.2205882,8.67647059 C15.7352941,8.67647059 16.1029412,8.30882353 16.1029412,7.79411765 L16.1029412,1.61764706 C16.1029412,1.10294118 15.7352941,0.735294118 15.2205882,0.735294118 C14.7058824,0.735294118 14.3382353,1.10294118 14.3382353,1.61764706 L14.3382353,7.79411765 C14.3382353,8.30882353 14.7058824,8.67647059 15.2205882,8.67647059 Z M24.0441176,0.735294118 C23.5294118,0.735294118 23.1617647,1.10294118 23.1617647,1.61764706 L23.1617647,10.2941176 L15.2205882,10.2941176 C14.7058824,10.2941176 14.3382353,10.6617647 14.3382353,11.1764706 C14.3382353,11.6911765 14.7058824,12.0588235 15.2205882,12.0588235 L24.0441176,12.0588235 C24.5588235,12.0588235 24.9264706,11.6911765 24.9264706,11.1764706 L24.9264706,1.61764706 C24.9264706,1.10294118 24.4852941,0.735294118 24.0441176,0.735294118 Z" id="Shape"></path>
                <path d="M1.69117647,1.25 C1.47058824,0.808823529 0.955882353,0.588235294 0.514705882,0.808823529 C0.0735294118,1.02941176 -0.0735294118,1.54411765 0.147058824,1.98529412 L2.94117647,7.57352941 C3.01470588,7.86764706 3.30882353,8.08823529 3.67647059,8.08823529 C3.82352941,8.08823529 3.97058824,8.08823529 4.04411765,8.01470588 C4.48529412,7.79411765 4.63235294,7.27941176 4.41176471,6.83823529 L1.69117647,1.25 Z M10.8088235,0.808823529 C10.3676471,0.588235294 9.85294118,0.735294118 9.63235294,1.17647059 L4.85294118,10.7352941 C4.63235294,11.1764706 4.77941176,11.6911765 5.22058824,11.9117647 C5.36764706,11.9852941 5.51470588,11.9852941 5.58823529,11.9852941 C5.88235294,11.9852941 6.25,11.8382353 6.39705882,11.4705882 L11.1764706,1.91176471 C11.4705882,1.54411765 11.25,1.02941176 10.8088235,0.808823529 Z" id="Shape"></path>
            </g>
        </g>
    </g>
</svg>