<?xml version="1.0" encoding="UTF-8"?>
<svg width="33px" height="14px" viewBox="0 0 33 14" version="1.1" xmlns="http://www.w3.org/2000/svg" xmlns:xlink="http://www.w3.org/1999/xlink">
    <!-- Generator: Sketch 42 (36781) - http://www.bohemiancoding.com/sketch -->
    <title>youtube-icon</title>
    <desc>Created with Sketch.</desc>
    <defs></defs>
    <g id="Symbols" stroke="none" stroke-width="1">
        <g id="asset-picker" transform="translate(-131.000000, -52.000000)">
            <g id="youtube-icon" transform="translate(131.000000, 52.000000)">
                <g id="YouTube-logo" transform="translate(13.233503, 0.000000)">
                    <path d="M15.6738274,6.40953939 C15.6738274,5.78751515 15.8421777,5.61790303 16.239434,5.61790303 C16.6337589,5.61790303 16.7906345,5.80270303 16.7906345,6.41785455 L16.7906345,7.14441212 L15.6738274,7.1456 L15.6738274,6.40953939 Z" id="Combined-Shape"></path>
                    <path d="M19.4870025,3.01178182 C19.4870025,3.01178182 19.6829086,4.61278788 19.6829086,6.21387879 L19.6829086,7.71493333 C19.6829086,9.31585455 19.4870025,10.9168606 19.4870025,10.9168606 C19.4870025,10.9168606 19.2952843,12.2802061 18.7070635,12.8805939 C17.9612132,13.6687515 17.1248223,13.6726545 16.7413858,13.7188121 C13.9961878,13.9188 9.87386802,13.9250788 9.87386802,13.9250788 C9.87386802,13.9250788 4.77327411,13.8781576 3.20384772,13.7261939 C2.76722589,13.6436364 1.78677411,13.6687515 1.04067259,12.8805939 C0.452451777,12.2802061 0.260984772,10.9168606 0.260984772,10.9168606 C0.260984772,10.9168606 0.0647436548,9.31585455 0.0647436548,7.71493333 L0.0647436548,6.21387879 C0.0647436548,4.61278788 0.260984772,3.01178182 0.260984772,3.01178182 C0.260984772,3.01178182 0.452451777,1.64843636 1.04067259,1.04804848 C1.78677411,0.260060606 2.62274619,0.256157576 3.00635025,0.210084848 C5.75154822,0.00992727273 9.86959645,0.00992727273 9.86959645,0.00992727273 L9.87822335,0.00992727273 C9.87822335,0.00992727273 13.9961878,0.00992727273 16.7413858,0.210084848 C17.1248223,0.256157576 17.9612132,0.260060606 18.7070635,1.04804848 C19.2952843,1.64843636 19.4870025,3.01178182 19.4870025,3.01178182 Z M12.5273528,4.50850909 C12.0898096,4.50850909 11.6548629,4.78112727 11.2706726,5.26001212 L11.2720127,2.35242424 L10.0894569,2.35242424 L10.0894569,11.2707636 L11.2720127,11.2707636 L11.2736878,10.6007152 C11.6711117,11.0988606 12.1043832,11.3566303 12.5273528,11.3566303 C13.0009112,11.3566303 13.3469924,11.0997091 13.5057107,10.6052121 C13.5851954,10.3233455 13.6371244,9.88926061 13.6371244,9.27410909 L13.6371244,6.61190303 C13.6371244,5.98198788 13.5574721,5.55129697 13.4780711,5.2837697 C13.319269,4.78570909 13.0009112,4.50850909 12.5273528,4.50850909 Z M18.0412843,8.14273939 L18.041033,6.78210909 C18.041033,6.07124848 17.902835,5.55129697 17.6540787,5.21487273 C17.3207284,4.7598303 16.8471701,4.51894545 16.2504898,4.51894545 C15.6432563,4.51894545 15.1696142,4.7598303 14.8256269,5.21487273 C14.572934,5.55129697 14.4255228,6.10077576 14.4255228,6.81163636 L14.4255228,9.14106667 C14.4255228,9.8477697 14.5875914,10.3425212 14.8402843,10.675297 C15.1841041,11.1297455 15.6577462,11.3566303 16.2799721,11.3566303 C16.9014442,11.3566303 17.3894924,11.1185455 17.7185711,10.6356727 C17.8631345,10.4224485 17.9565228,10.1808 17.9967259,9.91369697 C18.0073629,9.79304242 18.0389391,9.51830303 18.0389391,9.12995152 L18.0389391,8.94133333 L16.7907183,8.94133333 C16.7907183,9.4248 16.7928122,9.71218182 16.7818401,9.77785455 C16.7139137,10.0999394 16.543302,10.2613212 16.2504898,10.2613212 C15.8421777,10.2613212 15.6697234,9.95204848 15.6738274,9.33791515 L15.6738274,8.14273939 L18.0412843,8.14273939 Z M9.1039797,11.2707636 L9.1039797,4.61533333 L7.85567513,4.61533333 L7.85567513,9.67349091 C7.59150761,10.0509818 7.37524873,10.2613212 7.13637563,10.2613212 C6.97765736,10.2613212 6.89934518,10.1930182 6.87019797,10.0062667 L6.87019797,9.54036364 L6.87019797,4.61533333 L5.62197716,4.61533333 L5.62197716,9.87313939 C5.62197716,10.3351394 5.67943401,10.6496727 5.76051015,10.851103 C5.89393401,11.1823515 6.16036294,11.3657091 6.54405076,11.3657091 C6.98134264,11.3657091 7.38245178,11.0881697 7.85567513,10.5386909 L7.85567513,11.2707636 L9.1039797,11.2707636 Z M4.37367259,11.2707636 L4.37367259,3.61692121 L5.81905584,3.61692121 L5.81905584,2.35242424 L1.68006853,2.35378182 L1.68006853,3.61692121 L3.05970305,3.61692121 L3.05970305,11.2707636 L4.37367259,11.2707636 Z" id="Combined-Shape"></path>
                    <path d="M12.3889036,9.34071515 C12.3889036,10.0062667 12.2340381,10.2613212 11.8909721,10.2613212 C11.6952335,10.2613212 11.4695102,10.1591636 11.2706726,9.95773333 L11.2720127,5.92140606 C11.470934,5.72252121 11.6952335,5.61790303 11.8909721,5.61790303 C12.2340381,5.61790303 12.3889036,5.81330909 12.3889036,6.47886061 L12.3889036,9.34071515 Z" id="Combined-Shape"></path>
                </g>
                <path d="M12.285632,11.2707636 L11.0373274,11.2707636 L11.0373274,10.5386909 C10.5641041,11.0881697 10.1629949,11.3657091 9.72570305,11.3657091 C9.34201523,11.3657091 9.07558629,11.1823515 8.94216244,10.851103 C8.86108629,10.6496727 8.80354569,10.3351394 8.80354569,9.87313939 L8.80354569,4.54872727 L10.0518503,4.54872727 L10.0518503,9.54036364 L10.0518503,10.0062667 C10.0809975,10.1930182 10.1592259,10.2613212 10.3180279,10.2613212 C10.556901,10.2613212 10.7731599,10.0509818 11.0373274,9.67349091 L11.0373274,4.54872727 L12.285632,4.54872727 L12.285632,11.2707636" id="Fill-14"></path>
                <path d="M6.63551269,9.27410909 C6.70126142,9.93966061 6.49748223,10.2699758 6.10985787,10.2699758 C5.7222335,10.2699758 5.51862183,9.93966061 5.58437056,9.27410909 L5.58437056,6.61190303 C5.51862183,5.94643636 5.72231726,5.63444848 6.10994162,5.63444848 C6.49756599,5.63444848 6.70184772,5.94643636 6.63618274,6.61190303 L6.63551269,9.27410909 Z M7.88381726,6.7450303 C7.88381726,6.02670303 7.74134772,5.48723636 7.4896599,5.14775758 C7.15706345,4.68796364 6.63551269,4.4997697 6.10994162,4.4997697 C5.5150203,4.4997697 5.06231726,4.68796364 4.73030711,5.14775758 C4.47451523,5.48723636 4.33732234,6.03255758 4.33732234,6.75088485 L4.33606599,9.14106667 C4.33606599,9.85532121 4.45809898,10.3488848 4.71389086,10.6852242 C5.04590102,11.1435758 5.58437056,11.3863273 6.10994162,11.3863273 C6.63551269,11.3863273 7.18336294,11.1435758 7.51595939,10.6852242 C7.76764721,10.3488848 7.88381726,9.85532121 7.88381726,9.14106667 L7.88381726,6.7450303 L7.88381726,6.7450303 Z" id="Fill-15"></path>
                <path d="M2.95643147,7.61031515 L2.95643147,11.2707636 L1.64246193,11.2707636 L1.64246193,7.61031515 C1.64246193,7.61031515 0.280918782,3.12233939 0,2.28590303 L1.37963452,2.28590303 L2.30170812,5.79167273 L3.21925888,2.28590303 L4.5988934,2.28590303 L2.95643147,7.61031515" id="Fill-17"></path>
            </g>
        </g>
    </g>
</svg>