<?xml version="1.0" encoding="UTF-8"?>
<svg width="10px" height="13px" viewBox="0 0 10 13" version="1.1" xmlns="http://www.w3.org/2000/svg" xmlns:xlink="http://www.w3.org/1999/xlink">
    <!-- Generator: Sketch 41.2 (35397) - http://www.bohemiancoding.com/sketch -->
    <title>bold</title>
    <desc>Created with Sketch.</desc>
    <defs></defs>
    <g id="Seamus-Visual-Working" stroke="none" stroke-width="1" fill-rule="evenodd">
        <g id="seamus-styles" transform="translate(-426.000000, -485.000000)">
            <g id="format-menu-copy" transform="translate(407.000000, 470.000000)">
                <g id="bold" transform="translate(19.000000, 15.000000)">
                    <path d="M0,12.2222222 L0,10.9053611 L0.722383333,10.6779389 C0.95375,10.6050944 1.11111111,10.3905778 1.11111111,10.1480222 L1.11111111,2.08620556 C1.11111111,1.83793333 0.946383333,1.61979444 0.707583333,1.55185556 L0,1.35053889 L0,0 L5.61650556,0 C8.50315556,0 9.31348333,1.31686111 9.31348333,2.98768333 C9.31348333,4.59183889 8.28391111,5.4867 7.25433889,5.82416111 L7.25433889,5.87433333 C9.17877222,6.09427222 10,7.20088333 10,8.88888889 C10,11.3872167 8.11483333,12.2222222 5.46461111,12.2222222 L0,12.2222222 Z M4.53607222,5.13205556 C5.75121667,5.13205556 6.83165,4.84476667 6.83165,3.40968889 C6.83165,2.02547222 5.95397222,1.8399 4.789,1.8399 L3.88888889,1.8399 L3.88888889,5.13205556 L4.53607222,5.13205556 Z M5.02542778,10.3988222 C6.44332222,10.3988222 7.37186111,10.0613611 7.37186111,8.59260556 C7.37186111,7.19120556 6.42682778,6.82006111 5.27903889,6.82006111 L3.88888889,6.82006111 L3.88888889,10.3988222 L5.02542778,10.3988222 Z" id="Shape"></path>
                </g>
            </g>
        </g>
    </g>
</svg>