<?xml version="1.0" encoding="UTF-8"?>
<svg width="13px" height="13px" viewBox="0 0 13 13" version="1.1" xmlns="http://www.w3.org/2000/svg" xmlns:xlink="http://www.w3.org/1999/xlink">
    <!-- Generator: Sketch 42 (36781) - http://www.bohemiancoding.com/sketch -->
    <title>link</title>
    <desc>Created with Sketch.</desc>
    <defs></defs>
    <g id="Seamus-Visual-Working" stroke="none" stroke-width="1" fill-rule="evenodd">
        <g id="seamus-features-v2" transform="translate(-287.000000, -906.000000)">
            <g id="format-bar" transform="translate(134.000000, 890.000000)">
                <g id="link" transform="translate(153.000000, 16.000000)">
                    <path d="M6.42633333,8.87141667 C6.38625,9.35891667 6.189625,9.836125 5.8175,10.20825 L4.73416667,11.2915833 C3.89945833,12.1252083 2.543125,12.1252083 1.70841667,11.2915833 C0.87425,10.4574167 0.87425,9.1 1.70841667,8.26583333 L2.79175,7.1825 C3.16441667,6.810375 3.64108333,6.61375 4.12858333,6.57366667 L5.11225,5.59 C4.043,5.31375 2.861625,5.58079167 2.02583333,6.417125 L0.9425,7.50045833 C-0.314166667,8.75658333 -0.314166667,10.8019167 0.9425,12.0580417 C1.57083333,12.6858333 2.39633333,13 3.22129167,13 C4.04625,13 4.87175,12.6858333 5.50008333,12.0575 L6.58341667,10.9741667 C7.41920833,10.138375 7.68625,8.957 7.41054167,7.88775 L6.42633333,8.87141667 Z" id="Shape"></path>
                    <path d="M8.87141667,6.42633333 C9.35891667,6.38625 9.836125,6.189625 10.20825,5.8175 L11.2915833,4.73416667 C12.1252083,3.89945833 12.1252083,2.543125 11.2915833,1.70841667 C10.4574167,0.87425 9.1,0.87425 8.26583333,1.70841667 L7.1825,2.79175 C6.810375,3.16441667 6.61375,3.64108333 6.57366667,4.12858333 L5.59,5.11225 C5.31375,4.043 5.58079167,2.861625 6.417125,2.02583333 L7.50045833,0.9425 C8.75658333,-0.314166667 10.8019167,-0.314166667 12.0580417,0.9425 C12.6858333,1.57083333 13,2.39633333 13,3.22129167 C13,4.04625 12.6858333,4.87175 12.0575,5.50008333 L10.9741667,6.58341667 C10.138375,7.41920833 8.957,7.68625 7.88775,7.41054167 L8.87141667,6.42633333 Z" id="Shape"></path>
                    <rect id="Rectangle-path" transform="translate(6.499700, 6.500192) rotate(-45.000000) translate(-6.499700, -6.500192) " x="3.66003989" y="5.95853003" width="5.67932053" height="1.08332294"></rect>
                </g>
            </g>
        </g>
    </g>
</svg>