<?xml version="1.0" encoding="UTF-8"?>
<svg width="15px" height="14px" viewBox="0 0 15 14" version="1.1" xmlns="http://www.w3.org/2000/svg" xmlns:xlink="http://www.w3.org/1999/xlink">
    <!-- Generator: Sketch 41.2 (35397) - http://www.bohemiancoding.com/sketch -->
    <title>numbers</title>
    <desc>Created with Sketch.</desc>
    <defs></defs>
    <g id="Seamus-Visual-Working" stroke="none" stroke-width="1" fill-rule="evenodd">
        <g id="seamus-styles" transform="translate(-502.000000, -484.000000)">
            <g id="format-menu-copy" transform="translate(407.000000, 470.000000)">
                <g id="numbers" transform="translate(95.000000, 14.000000)">
                    <path d="M14.375,2.5 L5.625,2.5 C5.27984375,2.5 5,2.22015625 5,1.875 C5,1.52984375 5.27984375,1.25 5.625,1.25 L14.375,1.25 C14.7201563,1.25 15,1.52984375 15,1.875 C15,2.22015625 14.7201563,2.5 14.375,2.5 Z" id="Shape"></path>
                    <path d="M14.375,7.5 L5.625,7.5 C5.27984375,7.5 5,7.22015625 5,6.875 C5,6.52984375 5.27984375,6.25 5.625,6.25 L14.375,6.25 C14.7201563,6.25 15,6.52984375 15,6.875 C15,7.22015625 14.7201563,7.5 14.375,7.5 Z" id="Shape"></path>
                    <path d="M14.375,12.5 L5.625,12.5 C5.27984375,12.5 5,12.2204562 5,11.875 C5,11.5295438 5.27984375,11.25 5.625,11.25 L14.375,11.25 C14.7201563,11.25 15,11.5295438 15,11.875 C15,12.2204562 14.7201563,12.5 14.375,12.5 Z" id="Shape"></path>
                    <path d="M0.97468125,3.49548125 L0.97468125,3.05084375 L1.4586875,3.011475 C1.537425,3.00598125 1.5487125,2.9834 1.5487125,2.89916875 L1.5487125,0.9353625 C1.5487125,0.86791875 1.531925,0.83404375 1.47546875,0.8172625 L0.98596875,0.71594375 L1.04791875,0.25451875 L2.39831875,0.25451875 L2.39831875,2.899175 C2.39831875,2.9892 2.4038125,3.0059875 2.48834375,3.01148125 L2.94976875,3.05085 L2.94976875,3.49549375 L0.97468125,3.49549375 L0.97468125,3.49548125 Z" id="Shape"></path>
                    <path d="M0.68216875,8.53775 L0.68216875,8.014375 L1.43625625,7.277375 C2.00449375,6.725925 2.2465,6.50100625 2.2465,6.18026875 C2.2465,5.97183125 2.14518125,5.8201625 1.847025,5.8201625 C1.53726875,5.8201625 1.407875,5.92148125 1.407875,6.32095625 L0.6428,6.25320625 C0.64829375,5.35873125 1.32914375,5.21225 1.9199625,5.21225 C2.79215625,5.21225 3.1016,5.58365 3.1016,6.11251875 C3.1016,6.64169375 2.736,6.9905125 2.32523125,7.3841875 L1.68925,7.99209375 L2.51658125,7.99209375 C2.57273125,7.99209375 2.59531875,7.9808 2.60660625,7.92434375 L2.68534375,7.48000625 L3.28165625,7.48000625 L3.28165625,8.53774375 L0.68216875,8.53774375 L0.68216875,8.53775 Z" id="Shape"></path>
                    <path d="M2.581125,11.8132 C3.0596375,11.8864438 3.323925,12.1733063 3.323925,12.6795938 C3.323925,13.4223938 2.76698125,13.7712063 1.96223125,13.7712063 C1.39399375,13.7712063 0.88770625,13.568875 0.6005375,13.2536313 L1.05066875,12.7586375 C1.2646,12.9667688 1.5008,13.1297313 1.8947875,13.1297313 C2.21003125,13.1297313 2.4801125,13.017425 2.4801125,12.6234438 C2.4801125,12.2801188 2.26618125,12.1394375 1.91736875,12.1394375 C1.77668125,12.1394375 1.66986875,12.1507313 1.50080625,12.1788063 L1.50080625,11.6163688 L1.7766875,11.5824938 C2.18165625,11.5318375 2.401075,11.3349938 2.401075,10.9748875 C2.401075,10.7609563 2.30555625,10.5867063 1.99030625,10.5867063 C1.68665625,10.5867063 1.540475,10.688025 1.540475,11.0875 L0.7696,11.01975 C0.7696,10.130775 1.43915625,9.97879375 2.029975,9.97879375 C2.89636875,9.97879375 3.2284,10.310825 3.2284,10.9129375 C3.2284,11.3856563 2.9357375,11.6838125 2.581125,11.790625 L2.581125,11.8132 Z" id="Shape"></path>
                </g>
            </g>
        </g>
    </g>
</svg>