<?xml version="1.0" encoding="UTF-8"?>
<svg width="13px" height="12px" viewBox="0 0 13 12" version="1.1" xmlns="http://www.w3.org/2000/svg" xmlns:xlink="http://www.w3.org/1999/xlink">
    <!-- Generator: Sketch 41.2 (35397) - http://www.bohemiancoding.com/sketch -->
    <title>quote</title>
    <desc>Created with Sketch.</desc>
    <defs></defs>
    <g id="Seamus-Visual-Working" stroke="none" stroke-width="1" fill-rule="evenodd">
        <g id="seamus-styles" transform="translate(-532.000000, -486.000000)">
            <g id="format-menu-copy" transform="translate(407.000000, 470.000000)">
                <g id="quote" transform="translate(125.000000, 16.000000)">
                    <path d="M4.875,11.375 L0.541666667,11.375 C0.24253125,11.375 0,11.1327287 0,10.8333333 L0,5.41666667 C0,2.68452708 1.02382583,0.875977917 3.04291,0.0409933333 C3.31929542,-0.072735 3.63588333,0.0581858333 3.75067333,0.334576667 C3.8649325,0.6112275 3.73348083,0.927815417 3.45709542,1.04234 C1.98999125,1.64880625 1.21531042,2.90511 1.09893875,4.875 L4.875,4.875 C5.17413542,4.875 5.41666667,5.11753125 5.41666667,5.41666667 L5.41666667,10.8333333 C5.41666667,11.1327293 5.17413542,11.375 4.875,11.375 Z" id="Fill-1"></path>
                    <path d="M12.4583333,11.375 L8.125,11.375 C7.82586458,11.375 7.58333333,11.1327287 7.58333333,10.8333333 L7.58333333,5.41666667 C7.58333333,2.68452708 8.60715917,0.875977917 10.6262433,0.0409933333 C10.9018379,-0.072735 11.2192221,0.0581858333 11.3340067,0.33457125 C11.4482658,0.611222083 11.3168142,0.92781 11.0404288,1.04233458 C9.57332458,1.64880625 8.79864375,2.90511 8.68227208,4.875 L12.4583333,4.875 C12.7574688,4.875 13,5.11753125 13,5.41666667 L13,10.8333333 C13,11.1327293 12.7574688,11.375 12.4583333,11.375 Z" id="Fill-3"></path>
                </g>
            </g>
        </g>
    </g>
</svg>