<?xml version="1.0" encoding="UTF-8"?>
<svg width="12px" height="12px" viewBox="0 0 12 12" version="1.1" xmlns="http://www.w3.org/2000/svg" xmlns:xlink="http://www.w3.org/1999/xlink">
    <!-- Generator: Sketch 41.2 (35397) - http://www.bohemiancoding.com/sketch -->
    <title>subscript</title>
    <desc>Created with Sketch.</desc>
    <defs></defs>
    <g id="Seamus-Visual-Working" stroke="none" stroke-width="1" fill-rule="evenodd">
        <g id="seamus-styles" transform="translate(-558.000000, -486.000000)">
            <g id="format-menu-copy" transform="translate(407.000000, 470.000000)">
                <g id="subscript" transform="translate(151.000000, 16.000000)">
                    <path d="M9.18594,12 L9.18594,11.43342 L10.002276,10.635582 C10.61742,10.038612 10.879398,9.795132 10.879398,9.447918 C10.879398,9.222276 10.769718,9.058086 10.446948,9.058086 C10.111626,9.058086 9.97155,9.167766 9.97155,9.600216 L9.143322,9.526878 C9.149274,8.558574 9.88632,8.4 10.525908,8.4 C11.470092,8.4 11.805084,8.802054 11.805084,9.37458 C11.805084,9.947436 11.409306,10.325046 10.964634,10.751214 L10.276152,11.409306 L11.171772,11.409306 C11.232558,11.409306 11.257008,11.397084 11.26923,11.335968 L11.354466,10.854954 L12,10.854954 L12,12 L9.18594,12 Z" id="Shape"></path>
                    <path d="M2.4,11.4 L2.4,10.450002 L3.977562,10.35702 C4.163532,10.343478 4.2,10.290516 4.2,10.091598 L4.2,1.2 L1.312956,1.2 C1.167006,1.2 1.126986,1.213242 1.100508,1.34595 L0.888642,2.4 L0,2.4 L0,0 L9.6,0 L9.6,2.4 L8.711358,2.4 L8.499498,1.34595 C8.473014,1.213242 8.432994,1.2 8.287044,1.2 L5.4,1.2 L5.4,10.091598 C5.4,10.277568 5.422932,10.33053 5.62185,10.343478 L7.2,10.450002 L7.2,11.4 L2.4,11.4 Z" id="Shape"></path>
                </g>
            </g>
        </g>
    </g>
</svg>