<?xml version="1.0" encoding="UTF-8"?>
<svg width="15px" height="14px" viewBox="0 0 15 14" version="1.1" xmlns="http://www.w3.org/2000/svg" xmlns:xlink="http://www.w3.org/1999/xlink">
    <!-- Generator: Sketch 41.2 (35397) - http://www.bohemiancoding.com/sketch -->
    <title>superscript</title>
    <desc>Created with Sketch.</desc>
    <defs></defs>
    <g id="Seamus-Visual-Working" stroke="none" stroke-width="1" fill-rule="evenodd">
        <g id="seamus-styles" transform="translate(-582.000000, -484.000000)">
            <g id="format-menu-copy" transform="translate(407.000000, 470.000000)">
                <g id="superscript" transform="translate(175.000000, 14.000000)">
                    <path d="M11.5812221,3.61204013 L11.5812221,3.04356522 L12.4002883,2.24306488 C13.0174896,1.64409833 13.2803438,1.39980401 13.2803438,1.05142876 C13.2803438,0.825032107 13.170297,0.660292977 12.8464475,0.660292977 C12.510004,0.660292977 12.3694595,0.770339799 12.3694595,1.20423612 L11.5384615,1.13064682 C11.5444334,0.159104348 12.2839445,0 12.9256716,0 C13.8730134,0 14.2091258,0.403398662 14.2091258,0.977839465 C14.2091258,1.55261137 13.8120241,1.93148428 13.3658649,2.35907759 L12.6750803,3.01937057 L13.5736957,3.01937057 C13.6346849,3.01937057 13.6592167,3.00710769 13.6714796,2.94578127 L13.7570007,2.46315853 L14.4046936,2.46315853 L14.4046936,3.61204013 L11.5812221,3.61204013 Z" id="Shape"></path>
                    <path d="M2.40802676,13.7458194 L2.40802676,12.7800983 L3.99086488,12.6868054 C4.17745686,12.6732241 4.21404682,12.6200789 4.21404682,12.4205017 L4.21404682,3.51170569 L1.31734716,3.51170569 C1.17090903,3.51170569 1.13075518,3.52499197 1.10418863,3.65814381 L0.891614047,4.71571906 L0,4.71571906 L0,2.30769231 L9.63210702,2.30769231 L9.63210702,4.71571906 L8.74049298,4.71571906 L8.52792441,3.65814381 C8.50135184,3.52499197 8.46119799,3.51170569 8.31475987,3.51170569 L5.4180602,3.51170569 L5.4180602,12.4205017 C5.4180602,12.6070936 5.4410689,12.6602328 5.64065217,12.6732241 L7.22408027,12.7800983 L7.22408027,13.7458194 L2.40802676,13.7458194 Z" id="Shape"></path>
                </g>
            </g>
        </g>
    </g>
</svg>